<svg height="180" viewBox="200 195 280 290" width="180" xmlns="http://www.w3.org/2000/svg"><g transform="translate(340 340)"><path d="m-12-130c-23-2-68 12-93 42-23 28-25 63-20 93 3 15-5 33 0 53 7 24 25 40 43 47 17 7 32 5 44 13 10 7 18 17 26 20v-33c-10-5-23-15-26-30-4-17 10-33 20-43s13-22 6-37c-6-13-18-20-23-37-5-18 3-40 17-56 8-10 13-20 6-32z" fill="#c09b6b"/><path d="m12-130c23-2 68 12 93 42 23 28 25 63 20 93-3 15 5 33 0 53-7 24-25 40-43 47-17 7-32 5-44 13-10 7-18 17-26 20v-33c10-5 23-15 26-30 4-17-10-33-20-43s-13-22-6-37c6-13 18-20 23-37 5-18-3-40-17-56-8-10-13-20-6-32z" fill="#c09b6b"/><rect fill="#c09b6b" height="268" rx="8" width="24" x="-12" y="-130"/><g fill="none" stroke="#f5f4ef" stroke-width="5"><path d="m-38-60c-17 12-22 32-14 48" stroke-linecap="round"/><path d="m-80-30c-10 20-5 45 8 58" stroke-linecap="round"/><path d="m-95 45c10 17 27 27 40 23" stroke-linecap="round"/><path d="m-30 50c-12 15-10 32 0 40" stroke-linecap="round"/><path d="m38-60c17 12 22 32 14 48" stroke-linecap="round"/><path d="m80-30c10 20 5 45-8 58" stroke-linecap="round"/><path d="m95 45c-10 17-27 27-40 23" stroke-linecap="round"/><path d="m30 50c12 15 10 32 0 40" stroke-linecap="round"/></g><circle cx="-60" cy="-75" fill="#8b6f47" r="7"/><circle cx="60" cy="-75" fill="#8b6f47" r="7"/><circle cx="-100" cy="5" fill="#8b6f47" r="6"/><circle cx="100" cy="5" fill="#8b6f47" r="6"/><circle cx="-68" cy="88" fill="#8b6f47" r="5"/><circle cx="68" cy="88" fill="#8b6f47" r="5"/><path d="m-60-75-40 80" opacity=".6" stroke="#8b6f47" stroke-linecap="round" stroke-width="2.5"/><path d="m-100 5 32 83" opacity=".6" stroke="#8b6f47" stroke-linecap="round" stroke-width="2.5"/><path d="m60-75 40 80" opacity=".6" stroke="#8b6f47" stroke-linecap="round" stroke-width="2.5"/><path d="m100 5-32 83" opacity=".6" stroke="#8b6f47" stroke-linecap="round" stroke-width="2.5"/></g></svg>